<svg width="35" height="25" viewBox="0 0 35 25" fill="none" xmlns="http://www.w3.org/2000/svg">
<path d="M0.28 12.672C0.28 10.88 0.418667 9.35467 0.696 8.096C0.994667 6.816 1.37867 5.74933 1.848 4.896C2.31733 4.02133 2.84 3.328 3.416 2.816C4.01333 2.28267 4.61067 1.888 5.208 1.632C5.82667 1.35467 6.41333 1.17333 6.968 1.088C7.544 1.00267 8.04533 0.959999 8.472 0.959999C8.89867 0.959999 9.38933 1.00267 9.944 1.088C10.52 1.17333 11.1067 1.35467 11.704 1.632C12.3227 1.888 12.92 2.28267 13.496 2.816C14.0933 3.328 14.6267 4.02133 15.096 4.896C15.5653 5.74933 15.9387 6.816 16.216 8.096C16.5147 9.35467 16.664 10.88 16.664 12.672C16.664 14.464 16.5147 16 16.216 17.28C15.9387 18.5387 15.5653 19.6053 15.096 20.48C14.6267 21.3333 14.0933 22.0267 13.496 22.56C12.92 23.072 12.3227 23.4667 11.704 23.744C11.1067 24 10.52 24.1707 9.944 24.256C9.38933 24.3413 8.89867 24.384 8.472 24.384C8.04533 24.384 7.544 24.3413 6.968 24.256C6.41333 24.1707 5.82667 24 5.208 23.744C4.61067 23.4667 4.01333 23.072 3.416 22.56C2.84 22.0267 2.31733 21.3333 1.848 20.48C1.37867 19.6053 0.994667 18.5387 0.696 17.28C0.418667 16 0.28 14.464 0.28 12.672ZM4.12 12.672C4.12 13.376 4.16267 14.1973 4.248 15.136C4.35467 16.0533 4.55733 16.928 4.856 17.76C5.15467 18.592 5.592 19.296 6.168 19.872C6.744 20.448 7.512 20.736 8.472 20.736C9.432 20.736 10.2 20.448 10.776 19.872C11.352 19.296 11.7893 18.592 12.088 17.76C12.3867 16.928 12.5787 16.0533 12.664 15.136C12.7707 14.1973 12.824 13.376 12.824 12.672C12.824 11.968 12.7707 11.1573 12.664 10.24C12.5787 9.30133 12.3867 8.416 12.088 7.584C11.7893 6.752 11.352 6.048 10.776 5.472C10.2 4.896 9.432 4.608 8.472 4.608C7.512 4.608 6.744 4.896 6.168 5.472C5.592 6.048 5.15467 6.752 4.856 7.584C4.55733 8.416 4.35467 9.30133 4.248 10.24C4.16267 11.1573 4.12 11.968 4.12 12.672ZM19.8255 19.936L28.6255 11.424C28.8815 11.168 29.1482 10.9013 29.4255 10.624C29.7028 10.3253 29.9482 10.016 30.1615 9.696C30.3962 9.376 30.5882 9.04533 30.7375 8.704C30.8868 8.34133 30.9615 7.968 30.9615 7.584C30.9615 7.11467 30.8655 6.69867 30.6735 6.336C30.5028 5.97333 30.2682 5.664 29.9695 5.408C29.6708 5.152 29.3188 4.96 28.9135 4.832C28.5295 4.68267 28.1135 4.608 27.6655 4.608C26.7055 4.608 25.9162 4.88533 25.2975 5.44C24.6788 5.99467 24.3055 6.74133 24.1775 7.68L20.1455 7.36C20.2308 6.31467 20.4762 5.39733 20.8815 4.608C21.3082 3.79733 21.8522 3.12533 22.5135 2.592C23.1748 2.05867 23.9428 1.65333 24.8175 1.376C25.6922 1.09867 26.6415 0.959999 27.6655 0.959999C28.6895 0.959999 29.6388 1.09867 30.5135 1.376C31.4095 1.632 32.1882 2.02667 32.8495 2.56C33.5108 3.072 34.0335 3.73333 34.4175 4.544C34.8015 5.35467 34.9935 6.304 34.9935 7.392C34.9935 8.82133 34.6628 10.0587 34.0015 11.104C33.3615 12.128 32.5295 13.1093 31.5055 14.048L24.4975 20.544H34.9935V24H19.8255V19.936Z" fill="#252525" fill-opacity="0.55"/>
</svg>
